<?xml version="1.0" encoding="UTF-8"?>
<!DOCTYPE svg PUBLIC "-//W3C//DTD SVG 1.1//EN" "http://www.w3.org/Graphics/SVG/1.1/DTD/svg11.dtd">
<svg xmlns="http://www.w3.org/2000/svg" version="1.1" width="7154px" height="1587px" style="shape-rendering:geometricPrecision; text-rendering:geometricPrecision; image-rendering:optimizeQuality; fill-rule:evenodd; clip-rule:evenodd" xmlns:xlink="http://www.w3.org/1999/xlink">
<g><path style="opacity:0.991" fill="#97c81d" d="M 504.5,-0.5 C 729.167,-0.5 953.833,-0.5 1178.5,-0.5C 1337.35,11.6562 1464.85,80.6562 1561,206.5C 1649.3,331.418 1677.97,469.084 1647,619.5C 1632.56,682.187 1607.4,740.02 1571.5,793C 1639.18,893.875 1667.68,1005.04 1657,1126.5C 1639.37,1278.66 1569.54,1400.16 1447.5,1491C 1360.67,1552.33 1264.01,1584.16 1157.5,1586.5C 941.833,1586.5 726.167,1586.5 510.5,1586.5C 508.735,1585.54 506.735,1585.21 504.5,1585.5C 504.5,1527.17 504.5,1468.83 504.5,1410.5C 405.164,1410.17 305.831,1410.5 206.5,1411.5C 182.885,1457.32 145.219,1478.15 93.5,1474C 39.6303,1463.63 8.29692,1431.47 -0.5,1377.5C -0.5,1370.5 -0.5,1363.5 -0.5,1356.5C 5.57177,1312.91 28.9051,1282.41 69.5,1265C 116.725,1250.1 157.225,1260.6 191,1296.5C 195.664,1302.49 199.83,1308.82 203.5,1315.5C 303.831,1316.5 404.164,1316.83 504.5,1316.5C 504.5,1289.17 504.5,1261.83 504.5,1234.5C 478.158,1234.17 451.825,1234.5 425.5,1235.5C 399.078,1278.37 360.744,1296.54 310.5,1290C 264.551,1279.38 235.717,1251.22 224,1205.5C 216.418,1156.18 233.252,1117.68 274.5,1090C 310.207,1070.69 346.207,1070.02 382.5,1088C 403.914,1099.91 419.58,1117.08 429.5,1139.5C 454.491,1140.5 479.491,1140.83 504.5,1140.5C 504.5,1040.17 504.5,939.833 504.5,839.5C 405.833,839.333 307.166,839.5 208.5,840C 188.481,881.864 155.148,904.03 108.5,906.5C 60.0804,904.059 26.2471,880.726 7,836.5C -9.63509,781.735 5.19824,737.902 51.5,705C 88.6615,684.724 125.995,684.391 163.5,704C 180.55,714.05 193.883,727.716 203.5,745C 303.833,745.5 404.166,745.667 504.5,745.5C 504.5,645.167 504.5,544.833 504.5,444.5C 478.498,444.333 452.498,444.5 426.5,445C 399.595,490.281 359.929,508.948 307.5,501C 260.471,488.971 232.305,459.138 223,411.5C 217.834,363.673 235.334,326.84 275.5,301C 319.536,278.618 361.203,282.285 400.5,312C 413.102,322.894 422.769,335.894 429.5,351C 454.498,351.5 479.498,351.667 504.5,351.5C 504.5,323.833 504.5,296.167 504.5,268.5C 405.499,268.333 306.499,268.5 207.5,269C 184.143,314.356 146.81,335.356 95.5,332C 45.4081,323.573 14.2414,294.74 2,245.5C -5.25828,190.51 15.575,150.344 64.5,125C 112.371,107.106 154.205,116.273 190,152.5C 195.579,159.319 200.412,166.653 204.5,174.5C 304.498,175.5 404.498,175.833 504.5,175.5C 504.5,116.833 504.5,58.1667 504.5,-0.5 Z M 597.5,92.5 C 791.842,92.0262 986.176,92.5262 1180.5,94C 1315.81,107.036 1421.65,169.203 1498,280.5C 1569.46,394.825 1584.12,516.159 1542,644.5C 1532.8,669.56 1521.47,693.56 1508,716.5C 1488.01,697.163 1466.84,679.33 1444.5,663C 1489.5,574.402 1495.33,483.235 1462,389.5C 1421.31,289.146 1349.48,222.313 1246.5,189C 1222.65,181.969 1198.32,177.636 1173.5,176C 981.5,175.5 789.5,175.333 597.5,175.5C 597.5,147.833 597.5,120.167 597.5,92.5 Z M 101.5,191.5 C 121.746,189.533 134.913,198.2 141,217.5C 142.894,237.928 134.061,251.095 114.5,257C 94.943,258.639 82.1096,250.139 76,231.5C 73.672,211.137 82.172,197.804 101.5,191.5 Z M 597.5,268.5 C 783.834,268.333 970.167,268.5 1156.5,269C 1245.61,274.114 1313.11,314.614 1359,390.5C 1395.53,459.117 1399.19,529.451 1370,601.5C 1367.83,606.521 1365.16,611.188 1362,615.5C 1337.12,604.486 1311.62,595.152 1285.5,587.5C 1316.36,530.031 1314.52,473.698 1280,418.5C 1251.89,380.019 1214.06,357.852 1166.5,352C 976.834,351.5 787.167,351.333 597.5,351.5C 597.5,323.833 597.5,296.167 597.5,268.5 Z M 325.5,361.5 C 340.006,360.67 351.173,366.336 359,378.5C 368.007,399.812 362.174,415.645 341.5,426C 325.135,430.878 311.968,426.378 302,412.5C 293.142,394.477 296.642,379.311 312.5,367C 316.741,364.651 321.075,362.818 325.5,361.5 Z M 597.5,444.5 C 783.167,444.333 968.834,444.5 1154.5,445C 1186.42,449.259 1205.92,467.092 1213,498.5C 1215.24,530.531 1201.74,553.031 1172.5,566C 1168.88,567.156 1165.21,568.156 1161.5,569C 1019.5,569.333 877.5,569.667 735.5,570C 709.444,574.558 695.444,590.058 693.5,616.5C 695.563,643.395 709.896,658.895 736.5,663C 881.5,663.333 1026.5,663.667 1171.5,664C 1313.65,674.956 1423.82,739.456 1502,857.5C 1565.83,962.999 1581.5,1075.33 1549,1194.5C 1516.71,1298.43 1454.21,1378.59 1361.5,1435C 1302.19,1469.55 1238.19,1488.55 1169.5,1492C 978.834,1492.5 788.167,1492.67 597.5,1492.5C 597.5,1465.17 597.5,1437.83 597.5,1410.5C 784.5,1410.67 971.5,1410.5 1158.5,1410C 1278.84,1403.77 1371.34,1350.27 1436,1249.5C 1484.83,1164.56 1495.83,1074.89 1469,980.5C 1438.72,888.889 1380.55,821.389 1294.5,778C 1252.43,758.066 1208.1,747.399 1161.5,746C 973.5,745.5 785.5,745.333 597.5,745.5C 597.5,645.167 597.5,544.833 597.5,444.5 Z M 102.5,764.5 C 129.125,764.624 141.958,777.958 141,804.5C 134.638,823.527 121.471,832.027 101.5,830C 82.0517,823.943 73.5517,810.777 76,790.5C 80.1217,776.877 88.955,768.21 102.5,764.5 Z M 597.5,839.5 C 787.167,839.333 976.834,839.5 1166.5,840C 1249.54,848.077 1313.04,887.244 1357,957.5C 1393.24,1022.44 1399.24,1090.1 1375,1160.5C 1340.81,1243.69 1279.64,1294.52 1191.5,1313C 1182.87,1314.33 1174.2,1315.33 1165.5,1316C 976.167,1316.5 786.834,1316.67 597.5,1316.5C 597.5,1289.17 597.5,1261.83 597.5,1234.5C 783.5,1234.67 969.5,1234.5 1155.5,1234C 1222.86,1229.26 1270.02,1196.1 1297,1134.5C 1317.46,1074.15 1307.13,1019.82 1266,971.5C 1236.96,941.4 1201.46,924.9 1159.5,922C 1018.83,921.333 878.167,921.333 737.5,922C 721.292,923.513 708.792,931.013 700,944.5C 689.077,967.216 692.577,987.382 710.5,1005C 717.556,1010.53 725.556,1013.86 734.5,1015C 877.862,1015.01 1021.2,1015.68 1164.5,1017C 1198.8,1027.4 1214.96,1050.57 1213,1086.5C 1207.05,1116.78 1188.88,1134.62 1158.5,1140C 971.5,1140.5 784.5,1140.67 597.5,1140.5C 597.5,1040.17 597.5,939.833 597.5,839.5 Z M 322.5,1150.5 C 349.156,1149.33 362.656,1161.99 363,1188.5C 357.693,1208.13 344.86,1217.3 324.5,1216C 307.847,1211.51 298.514,1200.68 296.5,1183.5C 298.277,1166.89 306.944,1155.89 322.5,1150.5 Z M 101.5,1333.5 C 123.243,1332.43 136.409,1342.43 141,1363.5C 139.783,1388.54 126.617,1400.37 101.5,1399C 80.9182,1392.68 72.4182,1378.85 76,1357.5C 80.1917,1344.81 88.6917,1336.81 101.5,1333.5 Z"/></g>
<g><path style="opacity:0.998" fill="#656665" d="M 1773.5,-0.5 C 2158.5,-0.5 2543.5,-0.5 2928.5,-0.5C 2938.59,1.76455 2944.43,8.09788 2946,18.5C 2946.67,127.833 2946.67,237.167 2946,346.5C 2944.5,357.333 2938.33,363.5 2927.5,365C 2804.17,365.5 2680.83,365.667 2557.5,365.5C 2557.67,762.167 2557.5,1158.83 2557,1555.5C 2553.5,1566.67 2546,1573.17 2534.5,1575C 2412.83,1575.67 2291.17,1575.67 2169.5,1575C 2157.97,1573.14 2150.47,1566.64 2147,1555.5C 2146.5,1158.83 2146.33,762.167 2146.5,365.5C 2022.5,365.667 1898.5,365.5 1774.5,365C 1765.23,362.728 1759.73,356.895 1758,347.5C 1757.33,237.5 1757.33,127.5 1758,17.5C 1759.81,8.52795 1764.98,2.52795 1773.5,-0.5 Z"/></g>
<g><path style="opacity:0.998" fill="#656665" d="M 3158.5,-0.5 C 3474.17,-0.5 3789.83,-0.5 4105.5,-0.5C 4118.73,4.59191 4126.23,14.2586 4128,28.5C 4128.67,134.167 4128.67,239.833 4128,345.5C 4128.04,358.614 4121.87,367.114 4109.5,371C 3912.17,371.5 3714.83,371.667 3517.5,371.5C 3517.5,445.167 3517.5,518.833 3517.5,592.5C 3702.5,592.333 3887.5,592.5 4072.5,593C 4084.41,596.573 4091.91,604.406 4095,616.5C 4095.67,719.5 4095.67,822.5 4095,925.5C 4092.01,937.158 4084.84,944.991 4073.5,949C 3888.17,949.5 3702.83,949.667 3517.5,949.5C 3517.5,1033.83 3517.5,1118.17 3517.5,1202.5C 3724.83,1202.33 3932.17,1202.5 4139.5,1203C 4151.59,1206.28 4159.75,1213.78 4164,1225.5C 4164.67,1333.5 4164.67,1441.5 4164,1549.5C 4160.67,1561.49 4153.17,1569.66 4141.5,1574C 3815.21,1575.66 3488.88,1576 3162.5,1575C 3147.78,1571.95 3138.62,1563.12 3135,1548.5C 3134.33,1041.17 3134.33,533.833 3135,26.5C 3138.41,13.5935 3146.24,4.59348 3158.5,-0.5 Z"/></g>
<g><path style="opacity:0.997" fill="#656665" d="M 5120.5,-0.5 C 5143.5,-0.5 5166.5,-0.5 5189.5,-0.5C 5294.82,5.24565 5395.82,29.4123 5492.5,72C 5558.11,102.374 5616.27,143.207 5667,194.5C 5673.05,206.409 5674.05,218.742 5670,231.5C 5668.06,235.11 5665.72,238.443 5663,241.5C 5588.62,319.096 5514.12,396.596 5439.5,474C 5429.41,480.907 5419.08,481.24 5408.5,475C 5400.52,467.356 5392.86,459.356 5385.5,451C 5335.9,408.051 5278.24,382.718 5212.5,375C 5107.54,363.104 5015.21,391.438 4935.5,460C 4885.48,507.172 4849.98,563.672 4829,629.5C 4812.28,680.127 4804.12,732.127 4804.5,785.5C 4803.51,849.554 4815.01,911.22 4839,970.5C 4872.77,1058.94 4932.27,1123.77 5017.5,1165C 5089.99,1196.44 5164.99,1204.11 5242.5,1188C 5314.25,1171.18 5372.58,1133.85 5417.5,1076C 5426.72,1071.23 5436.39,1070.23 5446.5,1073C 5449.6,1074.44 5452.44,1076.27 5455,1078.5C 5529.3,1157.14 5603.97,1235.47 5679,1313.5C 5687.63,1327.14 5687.63,1340.81 5679,1354.5C 5535.6,1504.24 5359.6,1577.9 5151,1575.5C 5047.35,1575.64 4947.18,1557.14 4850.5,1520C 4765.92,1485.58 4690.92,1436.91 4625.5,1374C 4516.85,1267.6 4445.35,1139.77 4411,990.5C 4388.21,883.684 4383.21,776.017 4396,667.5C 4412.25,536.722 4457.25,417.056 4531,308.5C 4630.83,169.264 4763.66,76.4308 4929.5,30C 4992.17,12.6653 5055.84,2.49867 5120.5,-0.5 Z"/></g>
<g><path style="opacity:0.998" fill="#656665" d="M 5905.5,-0.5 C 6020.83,-0.5 6136.17,-0.5 6251.5,-0.5C 6266.39,3.21742 6275.89,12.5507 6280,27.5C 6280.5,227.166 6280.67,426.833 6280.5,626.5C 6432.17,626.5 6583.83,626.5 6735.5,626.5C 6735.33,427.166 6735.5,227.833 6736,28.5C 6739.61,13.3944 6748.78,3.72772 6763.5,-0.5C 6883.83,-0.5 7004.17,-0.5 7124.5,-0.5C 7140.49,4.49002 7150.16,15.1567 7153.5,31.5C 7153.5,535.167 7153.5,1038.83 7153.5,1542.5C 7149.56,1560.94 7138.23,1571.77 7119.5,1575C 7002.5,1575.67 6885.5,1575.67 6768.5,1575C 6750.37,1573.2 6739.54,1563.37 6736,1545.5C 6735.5,1365.5 6735.33,1185.5 6735.5,1005.5C 6583.83,1005.5 6432.17,1005.5 6280.5,1005.5C 6280.67,1185.83 6280.5,1366.17 6280,1546.5C 6275.41,1563.09 6264.57,1572.59 6247.5,1575C 6134.83,1575.67 6022.17,1575.67 5909.5,1575C 5892.86,1572.7 5882.03,1563.53 5877,1547.5C 5876.33,1040.83 5876.33,534.167 5877,27.5C 5881.11,12.5507 5890.61,3.21742 5905.5,-0.5 Z"/></g>
</svg>
